<?xml version="1.0" encoding="UTF-8" standalone="no"?>
<!DOCTYPE svg PUBLIC "-//W3C//DTD SVG 1.1//EN"
 "http://www.w3.org/Graphics/SVG/1.1/DTD/svg11.dtd">
<!-- Generated by graphviz version 2.43.0 (0)
 -->
<!-- Title: test_frame.TestFrameStream Pages: 1 -->
<svg width="146pt" height="415pt"
 viewBox="0.00 0.00 146.00 415.00" xmlns="http://www.w3.org/2000/svg" xmlns:xlink="http://www.w3.org/1999/xlink">

<svg id="main" version="1.1" xmlns="http://www.w3.org/2000/svg" xmlns:xlink="http://www.w3.org/1999/xlink" xml:space="preserve" onload="init(evt)">
<style type="text/css"><![CDATA[
.node, .edge {opacity: 0.7;}
.node.selected, .edge.selected {opacity: 1;}
.edge:hover path { stroke: red; }
.edge:hover polygon { stroke: red; fill: red; }
]]></style>
<script type="application/ecmascript" xlink:href="svg.min.js"/>
<svg id="graph" class="graph">
<g id="graph0" class="graph" transform="scale(1 1) rotate(0) translate(4 411)">
<title>test_frame.TestFrameStream</title>
<!-- Node1 -->
<g id="Node000001" class="node">
<title>Node1</title>
<g id="a_Node000001"><a xlink:title=" ">
<polygon fill="#999999" stroke="transparent" points="138,-322 0,-322 0,0 138,0 138,-322"/>
<text text-anchor="start" x="5" y="-310" font-family="Helvetica,sans-Serif" font-size="10.00">test_frame.TestFrameStream</text>
<text text-anchor="start" x="7.5" y="-295" font-family="Helvetica,sans-Serif" font-size="10.00">+</text>
<text text-anchor="start" x="22" y="-295" font-family="Helvetica,sans-Serif" font-size="10.00">stream_id</text>
<text text-anchor="start" x="7.5" y="-280" font-family="Helvetica,sans-Serif" font-size="10.00">+</text>
<text text-anchor="start" x="22" y="-280" font-family="Helvetica,sans-Serif" font-size="10.00">offset</text>
<text text-anchor="start" x="7.5" y="-265" font-family="Helvetica,sans-Serif" font-size="10.00">+</text>
<text text-anchor="start" x="22" y="-265" font-family="Helvetica,sans-Serif" font-size="10.00">length</text>
<text text-anchor="start" x="7.5" y="-250" font-family="Helvetica,sans-Serif" font-size="10.00">+</text>
<text text-anchor="start" x="22" y="-250" font-family="Helvetica,sans-Serif" font-size="10.00">test_data</text>
<text text-anchor="start" x="7.5" y="-235" font-family="Helvetica,sans-Serif" font-size="10.00">+</text>
<text text-anchor="start" x="22" y="-235" font-family="Helvetica,sans-Serif" font-size="10.00">frame</text>
<text text-anchor="start" x="7.5" y="-220" font-family="Helvetica,sans-Serif" font-size="10.00">+</text>
<text text-anchor="start" x="22" y="-220" font-family="Helvetica,sans-Serif" font-size="10.00">fin_frame</text>
<text text-anchor="start" x="7.5" y="-205" font-family="Helvetica,sans-Serif" font-size="10.00">+</text>
<text text-anchor="start" x="22" y="-205" font-family="Helvetica,sans-Serif" font-size="10.00">setUp()</text>
<text text-anchor="start" x="7.5" y="-190" font-family="Helvetica,sans-Serif" font-size="10.00">+</text>
<text text-anchor="start" x="22" y="-190" font-family="Helvetica,sans-Serif" font-size="10.00">test_init()</text>
<text text-anchor="start" x="7.5" y="-175" font-family="Helvetica,sans-Serif" font-size="10.00">+</text>
<text text-anchor="start" x="22" y="-175" font-family="Helvetica,sans-Serif" font-size="10.00">test_encode_decode()</text>
<text text-anchor="start" x="7.5" y="-160" font-family="Helvetica,sans-Serif" font-size="10.00">+</text>
<text text-anchor="start" x="22" y="-160" font-family="Helvetica,sans-Serif" font-size="10.00">test_encode_decode</text>
<text text-anchor="start" x="22" y="-149" font-family="Helvetica,sans-Serif" font-size="10.00">_with_fin()</text>
<text text-anchor="start" x="7.5" y="-134" font-family="Helvetica,sans-Serif" font-size="10.00">+</text>
<text text-anchor="start" x="22" y="-134" font-family="Helvetica,sans-Serif" font-size="10.00">test_zero_offset()</text>
<text text-anchor="start" x="7.5" y="-119" font-family="Helvetica,sans-Serif" font-size="10.00">+</text>
<text text-anchor="start" x="22" y="-119" font-family="Helvetica,sans-Serif" font-size="10.00">test_zero_length()</text>
<text text-anchor="start" x="7.5" y="-104" font-family="Helvetica,sans-Serif" font-size="10.00">+</text>
<text text-anchor="start" x="22" y="-104" font-family="Helvetica,sans-Serif" font-size="10.00">test_end_of_attrs()</text>
<text text-anchor="start" x="7.5" y="-89" font-family="Helvetica,sans-Serif" font-size="10.00">+</text>
<text text-anchor="start" x="22" y="-89" font-family="Helvetica,sans-Serif" font-size="10.00">test_end_of_attrs_no</text>
<text text-anchor="start" x="22" y="-78" font-family="Helvetica,sans-Serif" font-size="10.00">_offset_no_length()</text>
<text text-anchor="start" x="7.5" y="-63" font-family="Helvetica,sans-Serif" font-size="10.00">+</text>
<text text-anchor="start" x="22" y="-63" font-family="Helvetica,sans-Serif" font-size="10.00">test_length_from_attrs()</text>
<text text-anchor="start" x="7.5" y="-48" font-family="Helvetica,sans-Serif" font-size="10.00">+</text>
<text text-anchor="start" x="22" y="-48" font-family="Helvetica,sans-Serif" font-size="10.00">test_length_from_attrs</text>
<text text-anchor="start" x="22" y="-37" font-family="Helvetica,sans-Serif" font-size="10.00">_zero_length()</text>
<text text-anchor="start" x="7.5" y="-22" font-family="Helvetica,sans-Serif" font-size="10.00">+</text>
<text text-anchor="start" x="22" y="-22" font-family="Helvetica,sans-Serif" font-size="10.00">test_all_combinations()</text>
<text text-anchor="start" x="7.5" y="-7" font-family="Helvetica,sans-Serif" font-size="10.00">+</text>
<text text-anchor="start" x="22" y="-7" font-family="Helvetica,sans-Serif" font-size="10.00">test_large_values()</text>
<polygon fill="#666666" stroke="#666666" points="0,-305 0,-305 138,-305 138,-305 0,-305"/>
<polygon fill="#666666" stroke="#666666" points="0,-215 0,-215 20,-215 20,-215 0,-215"/>
<polygon fill="#666666" stroke="#666666" points="20,-215 20,-215 138,-215 138,-215 20,-215"/>
<polygon fill="none" stroke="#666666" points="0,0 0,-322 138,-322 138,0 0,0"/>
</a>
</g>
</g>
<!-- Node2 -->
<g id="Node000002" class="node">
<title>Node2</title>
<g id="a_Node000002"><a xlink:title=" ">
<polygon fill="white" stroke="transparent" points="114.5,-407 23.5,-407 23.5,-358 114.5,-358 114.5,-407"/>
<text text-anchor="start" x="29" y="-394.5" font-family="Helvetica,sans-Serif" font-size="10.00">unittest::TestCase</text>
<text text-anchor="start" x="67.5" y="-379.5" font-family="Helvetica,sans-Serif" font-size="10.00"> </text>
<text text-anchor="start" x="67.5" y="-364.5" font-family="Helvetica,sans-Serif" font-size="10.00"> </text>
<polygon fill="#666666" stroke="#666666" points="24,-389.5 24,-389.5 115,-389.5 115,-389.5 24,-389.5"/>
<polygon fill="#666666" stroke="#666666" points="24,-374.5 24,-374.5 115,-374.5 115,-374.5 24,-374.5"/>
<polygon fill="none" stroke="#666666" points="23.5,-358 23.5,-407 114.5,-407 114.5,-358 23.5,-358"/>
</a>
</g>
</g>
<!-- Node2&#45;&gt;Node1 -->
<g id="edge1_Node000001_Node000002" class="edge">
<title>Node2&#45;&gt;Node1</title>
<g id="a_edge1_Node000001_Node000002"><a xlink:title=" ">
<path fill="none" stroke="#63b8ff" d="M69,-347.49C69,-339.87 69,-331.3 69,-322.13"/>
<polygon fill="none" stroke="#63b8ff" points="65.5,-347.59 69,-357.59 72.5,-347.59 65.5,-347.59"/>
</a>
</g>
</g>
</g>
</svg>
</svg>

<style type='text/css'>
<![CDATA[
[data-mouse-over-selected='false'] { opacity: 0.7; }
[data-mouse-over-selected='true']  { opacity: 1.0; }
]]>
</style>
<script type="application/ecmascript"><![CDATA[
document.addEventListener('DOMContentLoaded', (event) => {
  highlightEdges();
  highlightAdjacentNodes();
});
]]></script>
</svg>
