<?xml version="1.0" encoding="UTF-8" standalone="no"?>
<!DOCTYPE svg PUBLIC "-//W3C//DTD SVG 1.1//EN"
 "http://www.w3.org/Graphics/SVG/1.1/DTD/svg11.dtd">
<!-- Generated by graphviz version 2.43.0 (0)
 -->
<!-- Title: stream.StreamEndpointABC Pages: 1 -->
<svg width="288pt" height="433pt"
 viewBox="0.00 0.00 288.00 433.00" xmlns="http://www.w3.org/2000/svg" xmlns:xlink="http://www.w3.org/1999/xlink">

<svg id="main" version="1.1" xmlns="http://www.w3.org/2000/svg" xmlns:xlink="http://www.w3.org/1999/xlink" xml:space="preserve" onload="init(evt)">
<style type="text/css"><![CDATA[
.node, .edge {opacity: 0.7;}
.node.selected, .edge.selected {opacity: 1;}
.edge:hover path { stroke: red; }
.edge:hover polygon { stroke: red; fill: red; }
]]></style>
<script type="application/ecmascript" xlink:href="svg.min.js"/>
<svg id="graph" class="graph">
<g id="graph0" class="graph" transform="scale(1 1) rotate(0) translate(4 429)">
<title>stream.StreamEndpointABC</title>
<!-- Node1 -->
<g id="Node000001" class="node">
<title>Node1</title>
<g id="a_Node000001"><a xlink:title=" ">
<polygon fill="#999999" stroke="transparent" points="205,-340 71,-340 71,-216 205,-216 205,-340"/>
<text text-anchor="start" x="76" y="-328" font-family="Helvetica,sans-Serif" font-size="10.00">stream.StreamEndpointABC</text>
<text text-anchor="start" x="80.5" y="-313" font-family="Helvetica,sans-Serif" font-size="10.00">#</text>
<text text-anchor="start" x="96" y="-313" font-family="Helvetica,sans-Serif" font-size="10.00">_state</text>
<text text-anchor="start" x="80.5" y="-298" font-family="Helvetica,sans-Serif" font-size="10.00">#</text>
<text text-anchor="start" x="96" y="-298" font-family="Helvetica,sans-Serif" font-size="10.00">_buffer</text>
<text text-anchor="start" x="80" y="-283" font-family="Helvetica,sans-Serif" font-size="10.00">+</text>
<text text-anchor="start" x="96" y="-283" font-family="Helvetica,sans-Serif" font-size="10.00">__init__()</text>
<text text-anchor="start" x="80" y="-268" font-family="Helvetica,sans-Serif" font-size="10.00">+</text>
<text text-anchor="start" x="96" y="-268" font-family="Helvetica,sans-Serif" font-size="10.00">has_data()</text>
<text text-anchor="start" x="80" y="-253" font-family="Helvetica,sans-Serif" font-size="10.00">+</text>
<text text-anchor="start" x="96" y="-253" font-family="Helvetica,sans-Serif" font-size="10.00">is_terminal_state()</text>
<text text-anchor="start" x="80.5" y="-238" font-family="Helvetica,sans-Serif" font-size="10.00">#</text>
<text text-anchor="start" x="96" y="-238" font-family="Helvetica,sans-Serif" font-size="10.00">_set_state()</text>
<text text-anchor="start" x="80.5" y="-223" font-family="Helvetica,sans-Serif" font-size="10.00">#</text>
<text text-anchor="start" x="96" y="-223" font-family="Helvetica,sans-Serif" font-size="10.00">_add_data_to_buffer()</text>
<polygon fill="#666666" stroke="#666666" points="71,-323 71,-323 205,-323 205,-323 71,-323"/>
<polygon fill="#666666" stroke="#666666" points="71,-293 71,-293 94,-293 94,-293 71,-293"/>
<polygon fill="#666666" stroke="#666666" points="94,-293 94,-293 205,-293 205,-293 94,-293"/>
<polygon fill="none" stroke="#666666" points="71,-216 71,-340 205,-340 205,-216 71,-216"/>
</a>
</g>
</g>
<!-- Node3 -->
<g id="Node000003" class="node">
<title>Node3</title>
<g id="a_Node000003"><a xlink:href="classstream_1_1StreamReceiver.html" target="_top" xlink:title=" ">
<polygon fill="white" stroke="transparent" points="128,-172.5 0,-172.5 0,-7.5 128,-7.5 128,-172.5"/>
<text text-anchor="start" x="12" y="-160" font-family="Helvetica,sans-Serif" font-size="10.00">stream.StreamReceiver</text>
<text text-anchor="start" x="4.5" y="-145" font-family="Helvetica,sans-Serif" font-size="10.00">#</text>
<text text-anchor="start" x="15" y="-145" font-family="Helvetica,sans-Serif" font-size="10.00">_state</text>
<text text-anchor="start" x="4.5" y="-130" font-family="Helvetica,sans-Serif" font-size="10.00">#</text>
<text text-anchor="start" x="15" y="-130" font-family="Helvetica,sans-Serif" font-size="10.00">_recv_frame_dict</text>
<text text-anchor="start" x="4" y="-115" font-family="Helvetica,sans-Serif" font-size="10.00">+</text>
<text text-anchor="start" x="15" y="-115" font-family="Helvetica,sans-Serif" font-size="10.00">__init__()</text>
<text text-anchor="start" x="4" y="-100" font-family="Helvetica,sans-Serif" font-size="10.00">+</text>
<text text-anchor="start" x="15" y="-100" font-family="Helvetica,sans-Serif" font-size="10.00">stream_frame_recvd()</text>
<text text-anchor="start" x="4" y="-85" font-family="Helvetica,sans-Serif" font-size="10.00">+</text>
<text text-anchor="start" x="15" y="-85" font-family="Helvetica,sans-Serif" font-size="10.00">get_data_from_buffer()</text>
<text text-anchor="start" x="4.5" y="-70" font-family="Helvetica,sans-Serif" font-size="10.00">#</text>
<text text-anchor="start" x="15" y="-70" font-family="Helvetica,sans-Serif" font-size="10.00">_add_frame_to_recv</text>
<text text-anchor="start" x="15" y="-59" font-family="Helvetica,sans-Serif" font-size="10.00">_dict()</text>
<text text-anchor="start" x="4.5" y="-44" font-family="Helvetica,sans-Serif" font-size="10.00">#</text>
<text text-anchor="start" x="15" y="-44" font-family="Helvetica,sans-Serif" font-size="10.00">_fin_recvd()</text>
<text text-anchor="start" x="4.5" y="-29" font-family="Helvetica,sans-Serif" font-size="10.00">#</text>
<text text-anchor="start" x="15" y="-29" font-family="Helvetica,sans-Serif" font-size="10.00">_convert_dict_to_buffer()</text>
<text text-anchor="start" x="4.5" y="-14" font-family="Helvetica,sans-Serif" font-size="10.00">#</text>
<text text-anchor="start" x="15" y="-14" font-family="Helvetica,sans-Serif" font-size="10.00">_add_data_to_buffer()</text>
<polygon fill="#666666" stroke="#666666" points="0,-155 0,-155 128,-155 128,-155 0,-155"/>
<polygon fill="#666666" stroke="#666666" points="0,-125 0,-125 13,-125 13,-125 0,-125"/>
<polygon fill="#666666" stroke="#666666" points="13,-125 13,-125 128,-125 128,-125 13,-125"/>
<polygon fill="none" stroke="#666666" points="0,-7.5 0,-172.5 128,-172.5 128,-7.5 0,-7.5"/>
</a>
</g>
</g>
<!-- Node1&#45;&gt;Node3 -->
<g id="edge2_Node000001_Node000003" class="edge">
<title>Node1&#45;&gt;Node3</title>
<g id="a_edge2_Node000001_Node000003"><a xlink:title=" ">
<path fill="none" stroke="#63b8ff" d="M109.89,-206.34C105.53,-195.38 100.99,-183.98 96.54,-172.79"/>
<polygon fill="none" stroke="#63b8ff" points="106.72,-207.84 113.67,-215.84 113.22,-205.25 106.72,-207.84"/>
</a>
</g>
</g>
<!-- Node4 -->
<g id="Node000004" class="node">
<title>Node4</title>
<g id="a_Node000004"><a xlink:href="classstream_1_1StreamSender.html" target="_top" xlink:title=" ">
<polygon fill="white" stroke="transparent" points="280,-180 146,-180 146,0 280,0 280,-180"/>
<text text-anchor="start" x="165" y="-168" font-family="Helvetica,sans-Serif" font-size="10.00">stream.StreamSender</text>
<text text-anchor="start" x="150.5" y="-153" font-family="Helvetica,sans-Serif" font-size="10.00">#</text>
<text text-anchor="start" x="161" y="-153" font-family="Helvetica,sans-Serif" font-size="10.00">_stream_frames</text>
<text text-anchor="start" x="150.5" y="-138" font-family="Helvetica,sans-Serif" font-size="10.00">#</text>
<text text-anchor="start" x="161" y="-138" font-family="Helvetica,sans-Serif" font-size="10.00">_state</text>
<text text-anchor="start" x="150.5" y="-123" font-family="Helvetica,sans-Serif" font-size="10.00">#</text>
<text text-anchor="start" x="161" y="-123" font-family="Helvetica,sans-Serif" font-size="10.00">_buffer</text>
<text text-anchor="start" x="150" y="-108" font-family="Helvetica,sans-Serif" font-size="10.00">+</text>
<text text-anchor="start" x="161" y="-108" font-family="Helvetica,sans-Serif" font-size="10.00">__init__()</text>
<text text-anchor="start" x="150" y="-93" font-family="Helvetica,sans-Serif" font-size="10.00">+</text>
<text text-anchor="start" x="161" y="-93" font-family="Helvetica,sans-Serif" font-size="10.00">add_data_to_buffer()</text>
<text text-anchor="start" x="150" y="-78" font-family="Helvetica,sans-Serif" font-size="10.00">+</text>
<text text-anchor="start" x="161" y="-78" font-family="Helvetica,sans-Serif" font-size="10.00">generate_stream_frames()</text>
<text text-anchor="start" x="150" y="-63" font-family="Helvetica,sans-Serif" font-size="10.00">+</text>
<text text-anchor="start" x="161" y="-63" font-family="Helvetica,sans-Serif" font-size="10.00">generate_fin_frame()</text>
<text text-anchor="start" x="150" y="-48" font-family="Helvetica,sans-Serif" font-size="10.00">+</text>
<text text-anchor="start" x="161" y="-48" font-family="Helvetica,sans-Serif" font-size="10.00">send_next_frame()</text>
<text text-anchor="start" x="150.5" y="-33" font-family="Helvetica,sans-Serif" font-size="10.00">#</text>
<text text-anchor="start" x="161" y="-33" font-family="Helvetica,sans-Serif" font-size="10.00">_add_data_to_buffer()</text>
<text text-anchor="start" x="150.5" y="-18" font-family="Helvetica,sans-Serif" font-size="10.00">#</text>
<text text-anchor="start" x="161" y="-18" font-family="Helvetica,sans-Serif" font-size="10.00">_get_total_stream_frames</text>
<text text-anchor="start" x="161" y="-7" font-family="Helvetica,sans-Serif" font-size="10.00">_amount()</text>
<polygon fill="#666666" stroke="#666666" points="146,-163 146,-163 280,-163 280,-163 146,-163"/>
<polygon fill="#666666" stroke="#666666" points="146,-118 146,-118 159,-118 159,-118 146,-118"/>
<polygon fill="#666666" stroke="#666666" points="159,-118 159,-118 280,-118 280,-118 159,-118"/>
<polygon fill="none" stroke="#666666" points="146,0 146,-180 280,-180 280,0 146,0"/>
</a>
</g>
</g>
<!-- Node1&#45;&gt;Node4 -->
<g id="edge3_Node000001_Node000004" class="edge">
<title>Node1&#45;&gt;Node4</title>
<g id="a_edge3_Node000001_Node000004"><a xlink:title=" ">
<path fill="none" stroke="#63b8ff" d="M166.5,-206.31C169.95,-197.76 173.51,-188.94 177.05,-180.16"/>
<polygon fill="none" stroke="#63b8ff" points="163.16,-205.26 162.66,-215.84 169.65,-207.87 163.16,-205.26"/>
</a>
</g>
</g>
<!-- Node2 -->
<g id="Node000002" class="node">
<title>Node2</title>
<g id="a_Node000002"><a xlink:title=" ">
<polygon fill="white" stroke="transparent" points="154,-425 122,-425 122,-376 154,-376 154,-425"/>
<text text-anchor="start" x="127" y="-412.5" font-family="Helvetica,sans-Serif" font-size="10.00">ABC</text>
<text text-anchor="start" x="136" y="-397.5" font-family="Helvetica,sans-Serif" font-size="10.00"> </text>
<text text-anchor="start" x="136" y="-382.5" font-family="Helvetica,sans-Serif" font-size="10.00"> </text>
<polygon fill="#666666" stroke="#666666" points="122,-407.5 122,-407.5 154,-407.5 154,-407.5 122,-407.5"/>
<polygon fill="#666666" stroke="#666666" points="122,-392.5 122,-392.5 154,-392.5 154,-392.5 122,-392.5"/>
<polygon fill="none" stroke="#666666" points="122,-376 122,-425 154,-425 154,-376 122,-376"/>
</a>
</g>
</g>
<!-- Node2&#45;&gt;Node1 -->
<g id="edge1_Node000001_Node000002" class="edge">
<title>Node2&#45;&gt;Node1</title>
<g id="a_edge1_Node000001_Node000002"><a xlink:title=" ">
<path fill="none" stroke="#63b8ff" d="M138,-365.94C138,-357.91 138,-349.08 138,-340.23"/>
<polygon fill="none" stroke="#63b8ff" points="134.5,-365.98 138,-375.98 141.5,-365.98 134.5,-365.98"/>
</a>
</g>
</g>
</g>
</svg>
</svg>

<style type='text/css'>
<![CDATA[
[data-mouse-over-selected='false'] { opacity: 0.7; }
[data-mouse-over-selected='true']  { opacity: 1.0; }
]]>
</style>
<script type="application/ecmascript"><![CDATA[
document.addEventListener('DOMContentLoaded', (event) => {
  highlightEdges();
  highlightAdjacentNodes();
});
]]></script>
</svg>
