<?xml version="1.0" encoding="UTF-8" standalone="no"?>
<!DOCTYPE svg PUBLIC "-//W3C//DTD SVG 1.1//EN"
 "http://www.w3.org/Graphics/SVG/1.1/DTD/svg11.dtd">
<!-- Generated by graphviz version 2.43.0 (0)
 -->
<!-- Title: test_packet.TestPacketHeader Pages: 1 -->
<svg width="154pt" height="247pt"
 viewBox="0.00 0.00 154.00 247.00" xmlns="http://www.w3.org/2000/svg" xmlns:xlink="http://www.w3.org/1999/xlink">
<g id="graph0" class="graph" transform="scale(1 1) rotate(0) translate(4 243)">
<title>test_packet.TestPacketHeader</title>
<!-- Node1 -->
<g id="Node000001" class="node">
<title>Node1</title>
<g id="a_Node000001"><a xlink:title=" ">
<polygon fill="#999999" stroke="transparent" points="146,-154 0,-154 0,0 146,0 146,-154"/>
<text text-anchor="start" x="5" y="-142" font-family="Helvetica,sans-Serif" font-size="10.00">test_packet.TestPacketHeader</text>
<text text-anchor="start" x="10" y="-127" font-family="Helvetica,sans-Serif" font-size="10.00">+</text>
<text text-anchor="start" x="27" y="-127" font-family="Helvetica,sans-Serif" font-size="10.00">header</text>
<text text-anchor="start" x="10" y="-112" font-family="Helvetica,sans-Serif" font-size="10.00">+</text>
<text text-anchor="start" x="27" y="-112" font-family="Helvetica,sans-Serif" font-size="10.00">header_all_fields</text>
<text text-anchor="start" x="10" y="-97" font-family="Helvetica,sans-Serif" font-size="10.00">+</text>
<text text-anchor="start" x="27" y="-97" font-family="Helvetica,sans-Serif" font-size="10.00">setUp()</text>
<text text-anchor="start" x="10" y="-82" font-family="Helvetica,sans-Serif" font-size="10.00">+</text>
<text text-anchor="start" x="27" y="-82" font-family="Helvetica,sans-Serif" font-size="10.00">test_init_default()</text>
<text text-anchor="start" x="10" y="-67" font-family="Helvetica,sans-Serif" font-size="10.00">+</text>
<text text-anchor="start" x="27" y="-67" font-family="Helvetica,sans-Serif" font-size="10.00">test_init_custom()</text>
<text text-anchor="start" x="10" y="-52" font-family="Helvetica,sans-Serif" font-size="10.00">+</text>
<text text-anchor="start" x="27" y="-52" font-family="Helvetica,sans-Serif" font-size="10.00">test_pack()</text>
<text text-anchor="start" x="10" y="-37" font-family="Helvetica,sans-Serif" font-size="10.00">+</text>
<text text-anchor="start" x="27" y="-37" font-family="Helvetica,sans-Serif" font-size="10.00">test_pack_all_fields()</text>
<text text-anchor="start" x="10" y="-22" font-family="Helvetica,sans-Serif" font-size="10.00">+</text>
<text text-anchor="start" x="27" y="-22" font-family="Helvetica,sans-Serif" font-size="10.00">test_unpack()</text>
<text text-anchor="start" x="10" y="-7" font-family="Helvetica,sans-Serif" font-size="10.00">+</text>
<text text-anchor="start" x="27" y="-7" font-family="Helvetica,sans-Serif" font-size="10.00">test_unpack_all_fields()</text>
<polygon fill="#666666" stroke="#666666" points="0,-137 0,-137 146,-137 146,-137 0,-137"/>
<polygon fill="#666666" stroke="#666666" points="0,-107 0,-107 25,-107 25,-107 0,-107"/>
<polygon fill="#666666" stroke="#666666" points="25,-107 25,-107 146,-107 146,-107 25,-107"/>
<polygon fill="none" stroke="#666666" points="0,0 0,-154 146,-154 146,0 0,0"/>
</a>
</g>
</g>
<!-- Node2 -->
<g id="Node000002" class="node">
<title>Node2</title>
<g id="a_Node000002"><a xlink:title=" ">
<polygon fill="white" stroke="transparent" points="117,-239 29,-239 29,-190 117,-190 117,-239"/>
<text text-anchor="start" x="34" y="-226.5" font-family="Helvetica,sans-Serif" font-size="10.00">unittest.TestCase</text>
<text text-anchor="start" x="71" y="-211.5" font-family="Helvetica,sans-Serif" font-size="10.00"> </text>
<text text-anchor="start" x="71" y="-196.5" font-family="Helvetica,sans-Serif" font-size="10.00"> </text>
<polygon fill="#666666" stroke="#666666" points="29,-221.5 29,-221.5 117,-221.5 117,-221.5 29,-221.5"/>
<polygon fill="#666666" stroke="#666666" points="29,-206.5 29,-206.5 117,-206.5 117,-206.5 29,-206.5"/>
<polygon fill="none" stroke="#666666" points="29,-190 29,-239 117,-239 117,-190 29,-190"/>
</a>
</g>
</g>
<!-- Node2&#45;&gt;Node1 -->
<g id="edge1_Node000001_Node000002" class="edge">
<title>Node2&#45;&gt;Node1</title>
<g id="a_edge1_Node000001_Node000002"><a xlink:title=" ">
<path fill="none" stroke="#63b8ff" d="M73,-179.66C73,-171.74 73,-162.97 73,-154.01"/>
<polygon fill="none" stroke="#63b8ff" points="69.5,-179.9 73,-189.9 76.5,-179.9 69.5,-179.9"/>
</a>
</g>
</g>
</g>
</svg>
