<?xml version="1.0" encoding="UTF-8" standalone="no"?>
<!DOCTYPE svg PUBLIC "-//W3C//DTD SVG 1.1//EN"
 "http://www.w3.org/Graphics/SVG/1.1/DTD/svg11.dtd">
<!-- Generated by graphviz version 2.43.0 (0)
 -->
<!-- Title: test_stream.TestStreamReceiver Pages: 1 -->
<svg width="163pt" height="273pt"
 viewBox="0.00 0.00 163.00 273.00" xmlns="http://www.w3.org/2000/svg" xmlns:xlink="http://www.w3.org/1999/xlink">
<g id="graph0" class="graph" transform="scale(1 1) rotate(0) translate(4 269)">
<title>test_stream.TestStreamReceiver</title>
<!-- Node1 -->
<g id="Node000001" class="node">
<title>Node1</title>
<g id="a_Node000001"><a xlink:title=" ">
<polygon fill="#999999" stroke="transparent" points="155,-180 0,-180 0,0 155,0 155,-180"/>
<text text-anchor="start" x="5.5" y="-168" font-family="Helvetica,sans-Serif" font-size="10.00">test_stream.TestStreamReceiver</text>
<text text-anchor="start" x="14" y="-153" font-family="Helvetica,sans-Serif" font-size="10.00">+</text>
<text text-anchor="start" x="34.5" y="-153" font-family="Helvetica,sans-Serif" font-size="10.00">stream_id</text>
<text text-anchor="start" x="14" y="-138" font-family="Helvetica,sans-Serif" font-size="10.00">+</text>
<text text-anchor="start" x="34.5" y="-138" font-family="Helvetica,sans-Serif" font-size="10.00">receiver</text>
<text text-anchor="start" x="14" y="-123" font-family="Helvetica,sans-Serif" font-size="10.00">+</text>
<text text-anchor="start" x="34.5" y="-123" font-family="Helvetica,sans-Serif" font-size="10.00">test_data1</text>
<text text-anchor="start" x="14" y="-108" font-family="Helvetica,sans-Serif" font-size="10.00">+</text>
<text text-anchor="start" x="34.5" y="-108" font-family="Helvetica,sans-Serif" font-size="10.00">test_data2</text>
<text text-anchor="start" x="14" y="-93" font-family="Helvetica,sans-Serif" font-size="10.00">+</text>
<text text-anchor="start" x="34.5" y="-93" font-family="Helvetica,sans-Serif" font-size="10.00">frame1</text>
<text text-anchor="start" x="14" y="-78" font-family="Helvetica,sans-Serif" font-size="10.00">+</text>
<text text-anchor="start" x="34.5" y="-78" font-family="Helvetica,sans-Serif" font-size="10.00">frame2</text>
<text text-anchor="start" x="14" y="-63" font-family="Helvetica,sans-Serif" font-size="10.00">+</text>
<text text-anchor="start" x="34.5" y="-63" font-family="Helvetica,sans-Serif" font-size="10.00">setUp()</text>
<text text-anchor="start" x="14" y="-48" font-family="Helvetica,sans-Serif" font-size="10.00">+</text>
<text text-anchor="start" x="34.5" y="-48" font-family="Helvetica,sans-Serif" font-size="10.00">test_receive_frames()</text>
<text text-anchor="start" x="14" y="-33" font-family="Helvetica,sans-Serif" font-size="10.00">+</text>
<text text-anchor="start" x="34.5" y="-33" font-family="Helvetica,sans-Serif" font-size="10.00">test_receive_out_of</text>
<text text-anchor="start" x="34.5" y="-22" font-family="Helvetica,sans-Serif" font-size="10.00">_order()</text>
<text text-anchor="start" x="14" y="-7" font-family="Helvetica,sans-Serif" font-size="10.00">+</text>
<text text-anchor="start" x="34.5" y="-7" font-family="Helvetica,sans-Serif" font-size="10.00">test_error_after_read()</text>
<polygon fill="#666666" stroke="#666666" points="0.5,-163 0.5,-163 155.5,-163 155.5,-163 0.5,-163"/>
<polygon fill="#666666" stroke="#666666" points="0.5,-73 0.5,-73 32.5,-73 32.5,-73 0.5,-73"/>
<polygon fill="#666666" stroke="#666666" points="32.5,-73 32.5,-73 155.5,-73 155.5,-73 32.5,-73"/>
<polygon fill="none" stroke="#666666" points="0,0 0,-180 155,-180 155,0 0,0"/>
</a>
</g>
</g>
<!-- Node2 -->
<g id="Node000002" class="node">
<title>Node2</title>
<g id="a_Node000002"><a xlink:title=" ">
<polygon fill="white" stroke="transparent" points="121.5,-265 33.5,-265 33.5,-216 121.5,-216 121.5,-265"/>
<text text-anchor="start" x="38.5" y="-252.5" font-family="Helvetica,sans-Serif" font-size="10.00">unittest.TestCase</text>
<text text-anchor="start" x="75.5" y="-237.5" font-family="Helvetica,sans-Serif" font-size="10.00"> </text>
<text text-anchor="start" x="75.5" y="-222.5" font-family="Helvetica,sans-Serif" font-size="10.00"> </text>
<polygon fill="#666666" stroke="#666666" points="33.5,-247.5 33.5,-247.5 121.5,-247.5 121.5,-247.5 33.5,-247.5"/>
<polygon fill="#666666" stroke="#666666" points="33.5,-232.5 33.5,-232.5 121.5,-232.5 121.5,-232.5 33.5,-232.5"/>
<polygon fill="none" stroke="#666666" points="33.5,-216 33.5,-265 121.5,-265 121.5,-216 33.5,-216"/>
</a>
</g>
</g>
<!-- Node2&#45;&gt;Node1 -->
<g id="edge1_Node000001_Node000002" class="edge">
<title>Node2&#45;&gt;Node1</title>
<g id="a_edge1_Node000001_Node000002"><a xlink:title=" ">
<path fill="none" stroke="#63b8ff" d="M77.5,-205.81C77.5,-197.92 77.5,-189.14 77.5,-180.06"/>
<polygon fill="none" stroke="#63b8ff" points="74,-205.97 77.5,-215.97 81,-205.97 74,-205.97"/>
</a>
</g>
</g>
</g>
</svg>
