<?xml version="1.0" encoding="UTF-8" standalone="no"?>
<!DOCTYPE svg PUBLIC "-//W3C//DTD SVG 1.1//EN"
 "http://www.w3.org/Graphics/SVG/1.1/DTD/svg11.dtd">
<!-- Generated by graphviz version 2.43.0 (0)
 -->
<!-- Title: stream.StreamSender Pages: 1 -->
<svg width="142pt" height="433pt"
 viewBox="0.00 0.00 142.00 433.00" xmlns="http://www.w3.org/2000/svg" xmlns:xlink="http://www.w3.org/1999/xlink">

<svg id="main" version="1.1" xmlns="http://www.w3.org/2000/svg" xmlns:xlink="http://www.w3.org/1999/xlink" xml:space="preserve" onload="init(evt)">
<style type="text/css"><![CDATA[
.node, .edge {opacity: 0.7;}
.node.selected, .edge.selected {opacity: 1;}
.edge:hover path { stroke: red; }
.edge:hover polygon { stroke: red; fill: red; }
]]></style>
<script type="application/ecmascript" xlink:href="svg.min.js"/>
<svg id="graph" class="graph">
<g id="graph0" class="graph" transform="scale(1 1) rotate(0) translate(4 429)">
<title>stream.StreamSender</title>
<!-- Node1 -->
<g id="Node000001" class="node">
<title>Node1</title>
<g id="a_Node000001"><a xlink:title=" ">
<polygon fill="#999999" stroke="transparent" points="134,-180 0,-180 0,0 134,0 134,-180"/>
<text text-anchor="start" x="19" y="-168" font-family="Helvetica,sans-Serif" font-size="10.00">stream.StreamSender</text>
<text text-anchor="start" x="4.5" y="-153" font-family="Helvetica,sans-Serif" font-size="10.00">#</text>
<text text-anchor="start" x="15" y="-153" font-family="Helvetica,sans-Serif" font-size="10.00">_stream_frames</text>
<text text-anchor="start" x="4.5" y="-138" font-family="Helvetica,sans-Serif" font-size="10.00">#</text>
<text text-anchor="start" x="15" y="-138" font-family="Helvetica,sans-Serif" font-size="10.00">_state</text>
<text text-anchor="start" x="4.5" y="-123" font-family="Helvetica,sans-Serif" font-size="10.00">#</text>
<text text-anchor="start" x="15" y="-123" font-family="Helvetica,sans-Serif" font-size="10.00">_buffer</text>
<text text-anchor="start" x="4" y="-108" font-family="Helvetica,sans-Serif" font-size="10.00">+</text>
<text text-anchor="start" x="15" y="-108" font-family="Helvetica,sans-Serif" font-size="10.00">__init__()</text>
<text text-anchor="start" x="4" y="-93" font-family="Helvetica,sans-Serif" font-size="10.00">+</text>
<text text-anchor="start" x="15" y="-93" font-family="Helvetica,sans-Serif" font-size="10.00">add_data_to_buffer()</text>
<text text-anchor="start" x="4" y="-78" font-family="Helvetica,sans-Serif" font-size="10.00">+</text>
<text text-anchor="start" x="15" y="-78" font-family="Helvetica,sans-Serif" font-size="10.00">generate_stream_frames()</text>
<text text-anchor="start" x="4" y="-63" font-family="Helvetica,sans-Serif" font-size="10.00">+</text>
<text text-anchor="start" x="15" y="-63" font-family="Helvetica,sans-Serif" font-size="10.00">generate_fin_frame()</text>
<text text-anchor="start" x="4" y="-48" font-family="Helvetica,sans-Serif" font-size="10.00">+</text>
<text text-anchor="start" x="15" y="-48" font-family="Helvetica,sans-Serif" font-size="10.00">send_next_frame()</text>
<text text-anchor="start" x="4.5" y="-33" font-family="Helvetica,sans-Serif" font-size="10.00">#</text>
<text text-anchor="start" x="15" y="-33" font-family="Helvetica,sans-Serif" font-size="10.00">_add_data_to_buffer()</text>
<text text-anchor="start" x="4.5" y="-18" font-family="Helvetica,sans-Serif" font-size="10.00">#</text>
<text text-anchor="start" x="15" y="-18" font-family="Helvetica,sans-Serif" font-size="10.00">_get_total_stream_frames</text>
<text text-anchor="start" x="15" y="-7" font-family="Helvetica,sans-Serif" font-size="10.00">_amount()</text>
<polygon fill="#666666" stroke="#666666" points="0,-163 0,-163 134,-163 134,-163 0,-163"/>
<polygon fill="#666666" stroke="#666666" points="0,-118 0,-118 13,-118 13,-118 0,-118"/>
<polygon fill="#666666" stroke="#666666" points="13,-118 13,-118 134,-118 134,-118 13,-118"/>
<polygon fill="none" stroke="#666666" points="0,0 0,-180 134,-180 134,0 0,0"/>
</a>
</g>
</g>
<!-- Node2 -->
<g id="Node000002" class="node">
<title>Node2</title>
<g id="a_Node000002"><a xlink:href="classstream_1_1StreamEndpointABC.html" target="_top" xlink:title=" ">
<polygon fill="white" stroke="transparent" points="134,-340 0,-340 0,-216 134,-216 134,-340"/>
<text text-anchor="start" x="5" y="-328" font-family="Helvetica,sans-Serif" font-size="10.00">stream.StreamEndpointABC</text>
<text text-anchor="start" x="9.5" y="-313" font-family="Helvetica,sans-Serif" font-size="10.00">#</text>
<text text-anchor="start" x="25" y="-313" font-family="Helvetica,sans-Serif" font-size="10.00">_state</text>
<text text-anchor="start" x="9.5" y="-298" font-family="Helvetica,sans-Serif" font-size="10.00">#</text>
<text text-anchor="start" x="25" y="-298" font-family="Helvetica,sans-Serif" font-size="10.00">_buffer</text>
<text text-anchor="start" x="9" y="-283" font-family="Helvetica,sans-Serif" font-size="10.00">+</text>
<text text-anchor="start" x="25" y="-283" font-family="Helvetica,sans-Serif" font-size="10.00">__init__()</text>
<text text-anchor="start" x="9" y="-268" font-family="Helvetica,sans-Serif" font-size="10.00">+</text>
<text text-anchor="start" x="25" y="-268" font-family="Helvetica,sans-Serif" font-size="10.00">has_data()</text>
<text text-anchor="start" x="9" y="-253" font-family="Helvetica,sans-Serif" font-size="10.00">+</text>
<text text-anchor="start" x="25" y="-253" font-family="Helvetica,sans-Serif" font-size="10.00">is_terminal_state()</text>
<text text-anchor="start" x="9.5" y="-238" font-family="Helvetica,sans-Serif" font-size="10.00">#</text>
<text text-anchor="start" x="25" y="-238" font-family="Helvetica,sans-Serif" font-size="10.00">_set_state()</text>
<text text-anchor="start" x="9.5" y="-223" font-family="Helvetica,sans-Serif" font-size="10.00">#</text>
<text text-anchor="start" x="25" y="-223" font-family="Helvetica,sans-Serif" font-size="10.00">_add_data_to_buffer()</text>
<polygon fill="#666666" stroke="#666666" points="0,-323 0,-323 134,-323 134,-323 0,-323"/>
<polygon fill="#666666" stroke="#666666" points="0,-293 0,-293 23,-293 23,-293 0,-293"/>
<polygon fill="#666666" stroke="#666666" points="23,-293 23,-293 134,-293 134,-293 23,-293"/>
<polygon fill="none" stroke="#666666" points="0,-216 0,-340 134,-340 134,-216 0,-216"/>
</a>
</g>
</g>
<!-- Node2&#45;&gt;Node1 -->
<g id="edge1_Node000001_Node000002" class="edge">
<title>Node2&#45;&gt;Node1</title>
<g id="a_edge1_Node000001_Node000002"><a xlink:title=" ">
<path fill="none" stroke="#63b8ff" d="M67,-205.76C67,-197.38 67,-188.75 67,-180.16"/>
<polygon fill="none" stroke="#63b8ff" points="63.5,-205.84 67,-215.84 70.5,-205.84 63.5,-205.84"/>
</a>
</g>
</g>
<!-- Node3 -->
<g id="Node000003" class="node">
<title>Node3</title>
<g id="a_Node000003"><a xlink:title=" ">
<polygon fill="white" stroke="transparent" points="83,-425 51,-425 51,-376 83,-376 83,-425"/>
<text text-anchor="start" x="56" y="-412.5" font-family="Helvetica,sans-Serif" font-size="10.00">ABC</text>
<text text-anchor="start" x="65" y="-397.5" font-family="Helvetica,sans-Serif" font-size="10.00"> </text>
<text text-anchor="start" x="65" y="-382.5" font-family="Helvetica,sans-Serif" font-size="10.00"> </text>
<polygon fill="#666666" stroke="#666666" points="51,-407.5 51,-407.5 83,-407.5 83,-407.5 51,-407.5"/>
<polygon fill="#666666" stroke="#666666" points="51,-392.5 51,-392.5 83,-392.5 83,-392.5 51,-392.5"/>
<polygon fill="none" stroke="#666666" points="51,-376 51,-425 83,-425 83,-376 51,-376"/>
</a>
</g>
</g>
<!-- Node3&#45;&gt;Node2 -->
<g id="edge2_Node000002_Node000003" class="edge">
<title>Node3&#45;&gt;Node2</title>
<g id="a_edge2_Node000002_Node000003"><a xlink:title=" ">
<path fill="none" stroke="#63b8ff" d="M67,-365.94C67,-357.91 67,-349.08 67,-340.23"/>
<polygon fill="none" stroke="#63b8ff" points="63.5,-365.98 67,-375.98 70.5,-365.98 63.5,-365.98"/>
</a>
</g>
</g>
</g>
</svg>
</svg>

<style type='text/css'>
<![CDATA[
[data-mouse-over-selected='false'] { opacity: 0.7; }
[data-mouse-over-selected='true']  { opacity: 1.0; }
]]>
</style>
<script type="application/ecmascript"><![CDATA[
document.addEventListener('DOMContentLoaded', (event) => {
  highlightEdges();
  highlightAdjacentNodes();
});
]]></script>
</svg>
