<?xml version="1.0" encoding="UTF-8" standalone="no"?>
<!DOCTYPE svg PUBLIC "-//W3C//DTD SVG 1.1//EN"
 "http://www.w3.org/Graphics/SVG/1.1/DTD/svg11.dtd">
<!-- Generated by graphviz version 2.43.0 (0)
 -->
<!-- Title: stream.StreamReceiver Pages: 1 -->
<svg width="142pt" height="418pt"
 viewBox="0.00 0.00 142.00 418.00" xmlns="http://www.w3.org/2000/svg" xmlns:xlink="http://www.w3.org/1999/xlink">
<g id="graph0" class="graph" transform="scale(1 1) rotate(0) translate(4 414)">
<title>stream.StreamReceiver</title>
<!-- Node1 -->
<g id="Node000001" class="node">
<title>Node1</title>
<g id="a_Node000001"><a xlink:title=" ">
<polygon fill="#999999" stroke="transparent" points="131,-165 3,-165 3,0 131,0 131,-165"/>
<text text-anchor="start" x="15" y="-152.5" font-family="Helvetica,sans-Serif" font-size="10.00">stream.StreamReceiver</text>
<text text-anchor="start" x="7.5" y="-137.5" font-family="Helvetica,sans-Serif" font-size="10.00">#</text>
<text text-anchor="start" x="18" y="-137.5" font-family="Helvetica,sans-Serif" font-size="10.00">_state</text>
<text text-anchor="start" x="7.5" y="-122.5" font-family="Helvetica,sans-Serif" font-size="10.00">#</text>
<text text-anchor="start" x="18" y="-122.5" font-family="Helvetica,sans-Serif" font-size="10.00">_recv_frame_dict</text>
<text text-anchor="start" x="7" y="-107.5" font-family="Helvetica,sans-Serif" font-size="10.00">+</text>
<text text-anchor="start" x="18" y="-107.5" font-family="Helvetica,sans-Serif" font-size="10.00">__init__()</text>
<text text-anchor="start" x="7" y="-92.5" font-family="Helvetica,sans-Serif" font-size="10.00">+</text>
<text text-anchor="start" x="18" y="-92.5" font-family="Helvetica,sans-Serif" font-size="10.00">stream_frame_recvd()</text>
<text text-anchor="start" x="7" y="-77.5" font-family="Helvetica,sans-Serif" font-size="10.00">+</text>
<text text-anchor="start" x="18" y="-77.5" font-family="Helvetica,sans-Serif" font-size="10.00">get_data_from_buffer()</text>
<text text-anchor="start" x="7.5" y="-62.5" font-family="Helvetica,sans-Serif" font-size="10.00">#</text>
<text text-anchor="start" x="18" y="-62.5" font-family="Helvetica,sans-Serif" font-size="10.00">_add_frame_to_recv</text>
<text text-anchor="start" x="18" y="-51.5" font-family="Helvetica,sans-Serif" font-size="10.00">_dict()</text>
<text text-anchor="start" x="7.5" y="-36.5" font-family="Helvetica,sans-Serif" font-size="10.00">#</text>
<text text-anchor="start" x="18" y="-36.5" font-family="Helvetica,sans-Serif" font-size="10.00">_fin_recvd()</text>
<text text-anchor="start" x="7.5" y="-21.5" font-family="Helvetica,sans-Serif" font-size="10.00">#</text>
<text text-anchor="start" x="18" y="-21.5" font-family="Helvetica,sans-Serif" font-size="10.00">_convert_dict_to_buffer()</text>
<text text-anchor="start" x="7.5" y="-6.5" font-family="Helvetica,sans-Serif" font-size="10.00">#</text>
<text text-anchor="start" x="18" y="-6.5" font-family="Helvetica,sans-Serif" font-size="10.00">_add_data_to_buffer()</text>
<polygon fill="#666666" stroke="#666666" points="3,-147.5 3,-147.5 131,-147.5 131,-147.5 3,-147.5"/>
<polygon fill="#666666" stroke="#666666" points="3,-117.5 3,-117.5 16,-117.5 16,-117.5 3,-117.5"/>
<polygon fill="#666666" stroke="#666666" points="16,-117.5 16,-117.5 131,-117.5 131,-117.5 16,-117.5"/>
<polygon fill="none" stroke="#666666" points="3,0 3,-165 131,-165 131,0 3,0"/>
</a>
</g>
</g>
<!-- Node2 -->
<g id="Node000002" class="node">
<title>Node2</title>
<g id="a_Node000002"><a xlink:href="classstream_1_1StreamEndpointABC.html" target="_top" xlink:title=" ">
<polygon fill="white" stroke="transparent" points="134,-325 0,-325 0,-201 134,-201 134,-325"/>
<text text-anchor="start" x="5" y="-313" font-family="Helvetica,sans-Serif" font-size="10.00">stream.StreamEndpointABC</text>
<text text-anchor="start" x="9.5" y="-298" font-family="Helvetica,sans-Serif" font-size="10.00">#</text>
<text text-anchor="start" x="25" y="-298" font-family="Helvetica,sans-Serif" font-size="10.00">_state</text>
<text text-anchor="start" x="9.5" y="-283" font-family="Helvetica,sans-Serif" font-size="10.00">#</text>
<text text-anchor="start" x="25" y="-283" font-family="Helvetica,sans-Serif" font-size="10.00">_buffer</text>
<text text-anchor="start" x="9" y="-268" font-family="Helvetica,sans-Serif" font-size="10.00">+</text>
<text text-anchor="start" x="25" y="-268" font-family="Helvetica,sans-Serif" font-size="10.00">__init__()</text>
<text text-anchor="start" x="9" y="-253" font-family="Helvetica,sans-Serif" font-size="10.00">+</text>
<text text-anchor="start" x="25" y="-253" font-family="Helvetica,sans-Serif" font-size="10.00">has_data()</text>
<text text-anchor="start" x="9" y="-238" font-family="Helvetica,sans-Serif" font-size="10.00">+</text>
<text text-anchor="start" x="25" y="-238" font-family="Helvetica,sans-Serif" font-size="10.00">is_terminal_state()</text>
<text text-anchor="start" x="9.5" y="-223" font-family="Helvetica,sans-Serif" font-size="10.00">#</text>
<text text-anchor="start" x="25" y="-223" font-family="Helvetica,sans-Serif" font-size="10.00">_set_state()</text>
<text text-anchor="start" x="9.5" y="-208" font-family="Helvetica,sans-Serif" font-size="10.00">#</text>
<text text-anchor="start" x="25" y="-208" font-family="Helvetica,sans-Serif" font-size="10.00">_add_data_to_buffer()</text>
<polygon fill="#666666" stroke="#666666" points="0,-308 0,-308 134,-308 134,-308 0,-308"/>
<polygon fill="#666666" stroke="#666666" points="0,-278 0,-278 23,-278 23,-278 0,-278"/>
<polygon fill="#666666" stroke="#666666" points="23,-278 23,-278 134,-278 134,-278 23,-278"/>
<polygon fill="none" stroke="#666666" points="0,-201 0,-325 134,-325 134,-201 0,-201"/>
</a>
</g>
</g>
<!-- Node2&#45;&gt;Node1 -->
<g id="edge1_Node000001_Node000002" class="edge">
<title>Node2&#45;&gt;Node1</title>
<g id="a_edge1_Node000001_Node000002"><a xlink:title=" ">
<path fill="none" stroke="#63b8ff" d="M67,-190.54C67,-182.21 67,-173.67 67,-165.22"/>
<polygon fill="none" stroke="#63b8ff" points="63.5,-190.57 67,-200.57 70.5,-190.57 63.5,-190.57"/>
</a>
</g>
</g>
<!-- Node3 -->
<g id="Node000003" class="node">
<title>Node3</title>
<g id="a_Node000003"><a xlink:title=" ">
<polygon fill="white" stroke="transparent" points="83,-410 51,-410 51,-361 83,-361 83,-410"/>
<text text-anchor="start" x="56" y="-397.5" font-family="Helvetica,sans-Serif" font-size="10.00">ABC</text>
<text text-anchor="start" x="65" y="-382.5" font-family="Helvetica,sans-Serif" font-size="10.00"> </text>
<text text-anchor="start" x="65" y="-367.5" font-family="Helvetica,sans-Serif" font-size="10.00"> </text>
<polygon fill="#666666" stroke="#666666" points="51,-392.5 51,-392.5 83,-392.5 83,-392.5 51,-392.5"/>
<polygon fill="#666666" stroke="#666666" points="51,-377.5 51,-377.5 83,-377.5 83,-377.5 51,-377.5"/>
<polygon fill="none" stroke="#666666" points="51,-361 51,-410 83,-410 83,-361 51,-361"/>
</a>
</g>
</g>
<!-- Node3&#45;&gt;Node2 -->
<g id="edge2_Node000002_Node000003" class="edge">
<title>Node3&#45;&gt;Node2</title>
<g id="a_edge2_Node000002_Node000003"><a xlink:title=" ">
<path fill="none" stroke="#63b8ff" d="M67,-350.94C67,-342.91 67,-334.08 67,-325.23"/>
<polygon fill="none" stroke="#63b8ff" points="63.5,-350.98 67,-360.98 70.5,-350.98 63.5,-350.98"/>
</a>
</g>
</g>
</g>
</svg>
