<?xml version="1.0" encoding="UTF-8" standalone="no"?>
<!DOCTYPE svg PUBLIC "-//W3C//DTD SVG 1.1//EN"
 "http://www.w3.org/Graphics/SVG/1.1/DTD/svg11.dtd">
<!-- Generated by graphviz version 2.43.0 (0)
 -->
<!-- Title: stream.StreamEndpointABC Pages: 1 -->
<svg width="142pt" height="217pt"
 viewBox="0.00 0.00 142.00 217.00" xmlns="http://www.w3.org/2000/svg" xmlns:xlink="http://www.w3.org/1999/xlink">
<g id="graph0" class="graph" transform="scale(1 1) rotate(0) translate(4 213)">
<title>stream.StreamEndpointABC</title>
<!-- Node1 -->
<g id="Node000001" class="node">
<title>Node1</title>
<g id="a_Node000001"><a xlink:title=" ">
<polygon fill="#999999" stroke="transparent" points="134,-124 0,-124 0,0 134,0 134,-124"/>
<text text-anchor="start" x="5" y="-112" font-family="Helvetica,sans-Serif" font-size="10.00">stream.StreamEndpointABC</text>
<text text-anchor="start" x="9.5" y="-97" font-family="Helvetica,sans-Serif" font-size="10.00">#</text>
<text text-anchor="start" x="25" y="-97" font-family="Helvetica,sans-Serif" font-size="10.00">_state</text>
<text text-anchor="start" x="9.5" y="-82" font-family="Helvetica,sans-Serif" font-size="10.00">#</text>
<text text-anchor="start" x="25" y="-82" font-family="Helvetica,sans-Serif" font-size="10.00">_buffer</text>
<text text-anchor="start" x="9" y="-67" font-family="Helvetica,sans-Serif" font-size="10.00">+</text>
<text text-anchor="start" x="25" y="-67" font-family="Helvetica,sans-Serif" font-size="10.00">__init__()</text>
<text text-anchor="start" x="9" y="-52" font-family="Helvetica,sans-Serif" font-size="10.00">+</text>
<text text-anchor="start" x="25" y="-52" font-family="Helvetica,sans-Serif" font-size="10.00">has_data()</text>
<text text-anchor="start" x="9" y="-37" font-family="Helvetica,sans-Serif" font-size="10.00">+</text>
<text text-anchor="start" x="25" y="-37" font-family="Helvetica,sans-Serif" font-size="10.00">is_terminal_state()</text>
<text text-anchor="start" x="9.5" y="-22" font-family="Helvetica,sans-Serif" font-size="10.00">#</text>
<text text-anchor="start" x="25" y="-22" font-family="Helvetica,sans-Serif" font-size="10.00">_set_state()</text>
<text text-anchor="start" x="9.5" y="-7" font-family="Helvetica,sans-Serif" font-size="10.00">#</text>
<text text-anchor="start" x="25" y="-7" font-family="Helvetica,sans-Serif" font-size="10.00">_add_data_to_buffer()</text>
<polygon fill="#666666" stroke="#666666" points="0,-107 0,-107 134,-107 134,-107 0,-107"/>
<polygon fill="#666666" stroke="#666666" points="0,-77 0,-77 23,-77 23,-77 0,-77"/>
<polygon fill="#666666" stroke="#666666" points="23,-77 23,-77 134,-77 134,-77 23,-77"/>
<polygon fill="none" stroke="#666666" points="0,0 0,-124 134,-124 134,0 0,0"/>
</a>
</g>
</g>
<!-- Node2 -->
<g id="Node000002" class="node">
<title>Node2</title>
<g id="a_Node000002"><a xlink:title=" ">
<polygon fill="white" stroke="transparent" points="83,-209 51,-209 51,-160 83,-160 83,-209"/>
<text text-anchor="start" x="56" y="-196.5" font-family="Helvetica,sans-Serif" font-size="10.00">ABC</text>
<text text-anchor="start" x="65" y="-181.5" font-family="Helvetica,sans-Serif" font-size="10.00"> </text>
<text text-anchor="start" x="65" y="-166.5" font-family="Helvetica,sans-Serif" font-size="10.00"> </text>
<polygon fill="#666666" stroke="#666666" points="51,-191.5 51,-191.5 83,-191.5 83,-191.5 51,-191.5"/>
<polygon fill="#666666" stroke="#666666" points="51,-176.5 51,-176.5 83,-176.5 83,-176.5 51,-176.5"/>
<polygon fill="none" stroke="#666666" points="51,-160 51,-209 83,-209 83,-160 51,-160"/>
</a>
</g>
</g>
<!-- Node2&#45;&gt;Node1 -->
<g id="edge1_Node000001_Node000002" class="edge">
<title>Node2&#45;&gt;Node1</title>
<g id="a_edge1_Node000001_Node000002"><a xlink:title=" ">
<path fill="none" stroke="#63b8ff" d="M67,-149.94C67,-141.91 67,-133.08 67,-124.23"/>
<polygon fill="none" stroke="#63b8ff" points="63.5,-149.98 67,-159.98 70.5,-149.98 63.5,-149.98"/>
</a>
</g>
</g>
</g>
</svg>
