<?xml version="1.0" encoding="UTF-8" standalone="no"?>
<!DOCTYPE svg PUBLIC "-//W3C//DTD SVG 1.1//EN"
 "http://www.w3.org/Graphics/SVG/1.1/DTD/svg11.dtd">
<!-- Generated by graphviz version 2.43.0 (0)
 -->
<!-- Title: frame.StreamFrameABC Pages: 1 -->
<svg width="127pt" height="157pt"
 viewBox="0.00 0.00 127.00 157.00" xmlns="http://www.w3.org/2000/svg" xmlns:xlink="http://www.w3.org/1999/xlink">
<g id="graph0" class="graph" transform="scale(1 1) rotate(0) translate(4 153)">
<title>frame.StreamFrameABC</title>
<!-- Node1 -->
<g id="Node000001" class="node">
<title>Node1</title>
<g id="a_Node000001"><a xlink:title=" ">
<polygon fill="#999999" stroke="transparent" points="119,-64 0,-64 0,0 119,0 119,-64"/>
<text text-anchor="start" x="5.5" y="-52" font-family="Helvetica,sans-Serif" font-size="10.00">frame.StreamFrameABC</text>
<text text-anchor="start" x="18.5" y="-37" font-family="Helvetica,sans-Serif" font-size="10.00">+</text>
<text text-anchor="start" x="43.5" y="-37" font-family="Helvetica,sans-Serif" font-size="10.00">stream_id</text>
<text text-anchor="start" x="18.5" y="-22" font-family="Helvetica,sans-Serif" font-size="10.00">+</text>
<text text-anchor="start" x="43.5" y="-22" font-family="Helvetica,sans-Serif" font-size="10.00">encode()</text>
<text text-anchor="start" x="18.5" y="-7" font-family="Helvetica,sans-Serif" font-size="10.00">+</text>
<text text-anchor="start" x="43.5" y="-7" font-family="Helvetica,sans-Serif" font-size="10.00">decode()</text>
<polygon fill="#666666" stroke="#666666" points="0.5,-47 0.5,-47 119.5,-47 119.5,-47 0.5,-47"/>
<polygon fill="#666666" stroke="#666666" points="0.5,-32 0.5,-32 41.5,-32 41.5,-32 0.5,-32"/>
<polygon fill="#666666" stroke="#666666" points="41.5,-32 41.5,-32 119.5,-32 119.5,-32 41.5,-32"/>
<polygon fill="none" stroke="#666666" points="0,0 0,-64 119,-64 119,0 0,0"/>
</a>
</g>
</g>
<!-- Node2 -->
<g id="Node000002" class="node">
<title>Node2</title>
<g id="a_Node000002"><a xlink:title=" ">
<polygon fill="white" stroke="transparent" points="75.5,-149 43.5,-149 43.5,-100 75.5,-100 75.5,-149"/>
<text text-anchor="start" x="48.5" y="-136.5" font-family="Helvetica,sans-Serif" font-size="10.00">ABC</text>
<text text-anchor="start" x="57.5" y="-121.5" font-family="Helvetica,sans-Serif" font-size="10.00"> </text>
<text text-anchor="start" x="57.5" y="-106.5" font-family="Helvetica,sans-Serif" font-size="10.00"> </text>
<polygon fill="#666666" stroke="#666666" points="43.5,-131.5 43.5,-131.5 75.5,-131.5 75.5,-131.5 43.5,-131.5"/>
<polygon fill="#666666" stroke="#666666" points="43.5,-116.5 43.5,-116.5 75.5,-116.5 75.5,-116.5 43.5,-116.5"/>
<polygon fill="none" stroke="#666666" points="43.5,-100 43.5,-149 75.5,-149 75.5,-100 43.5,-100"/>
</a>
</g>
</g>
<!-- Node2&#45;&gt;Node1 -->
<g id="edge1_Node000001_Node000002" class="edge">
<title>Node2&#45;&gt;Node1</title>
<g id="a_edge1_Node000001_Node000002"><a xlink:title=" ">
<path fill="none" stroke="#63b8ff" d="M59.5,-89.54C59.5,-81.2 59.5,-72.31 59.5,-64.11"/>
<polygon fill="none" stroke="#63b8ff" points="56,-89.72 59.5,-99.72 63,-89.72 56,-89.72"/>
</a>
</g>
</g>
</g>
</svg>
