<?xml version="1.0" encoding="UTF-8" standalone="no"?>
<!DOCTYPE svg PUBLIC "-//W3C//DTD SVG 1.1//EN"
 "http://www.w3.org/Graphics/SVG/1.1/DTD/svg11.dtd">
<!-- Generated by graphviz version 2.43.0 (0)
 -->
<!-- Title: test_stream.TestStream Pages: 1 -->
<svg width="144pt" height="303pt"
 viewBox="0.00 0.00 144.00 303.00" xmlns="http://www.w3.org/2000/svg" xmlns:xlink="http://www.w3.org/1999/xlink">

<svg id="main" version="1.1" xmlns="http://www.w3.org/2000/svg" xmlns:xlink="http://www.w3.org/1999/xlink" xml:space="preserve" onload="init(evt)">
<style type="text/css"><![CDATA[
.node, .edge {opacity: 0.7;}
.node.selected, .edge.selected {opacity: 1;}
.edge:hover path { stroke: red; }
.edge:hover polygon { stroke: red; fill: red; }
]]></style>
<script type="application/ecmascript" xlink:href="svg.min.js"/>
<svg id="graph" class="graph">
<g id="graph0" class="graph" transform="scale(1 1) rotate(0) translate(4 299)">
<title>test_stream.TestStream</title>
<!-- Node1 -->
<g id="Node000001" class="node">
<title>Node1</title>
<g id="a_Node000001"><a xlink:title=" ">
<polygon fill="#999999" stroke="transparent" points="136,-210 0,-210 0,0 136,0 136,-210"/>
<text text-anchor="start" x="15" y="-198" font-family="Helvetica,sans-Serif" font-size="10.00">test_stream.TestStream</text>
<text text-anchor="start" x="4" y="-183" font-family="Helvetica,sans-Serif" font-size="10.00">+</text>
<text text-anchor="start" x="15" y="-183" font-family="Helvetica,sans-Serif" font-size="10.00">bidi_stream</text>
<text text-anchor="start" x="4" y="-168" font-family="Helvetica,sans-Serif" font-size="10.00">+</text>
<text text-anchor="start" x="15" y="-168" font-family="Helvetica,sans-Serif" font-size="10.00">uni_c_stream</text>
<text text-anchor="start" x="4" y="-153" font-family="Helvetica,sans-Serif" font-size="10.00">+</text>
<text text-anchor="start" x="15" y="-153" font-family="Helvetica,sans-Serif" font-size="10.00">uni_s_stream</text>
<text text-anchor="start" x="4" y="-138" font-family="Helvetica,sans-Serif" font-size="10.00">+</text>
<text text-anchor="start" x="15" y="-138" font-family="Helvetica,sans-Serif" font-size="10.00">test_data</text>
<text text-anchor="start" x="4" y="-123" font-family="Helvetica,sans-Serif" font-size="10.00">+</text>
<text text-anchor="start" x="15" y="-123" font-family="Helvetica,sans-Serif" font-size="10.00">mock_frame</text>
<text text-anchor="start" x="4" y="-108" font-family="Helvetica,sans-Serif" font-size="10.00">+</text>
<text text-anchor="start" x="15" y="-108" font-family="Helvetica,sans-Serif" font-size="10.00">setUp()</text>
<text text-anchor="start" x="4" y="-93" font-family="Helvetica,sans-Serif" font-size="10.00">+</text>
<text text-anchor="start" x="15" y="-93" font-family="Helvetica,sans-Serif" font-size="10.00">test_stream_initialization()</text>
<text text-anchor="start" x="4" y="-78" font-family="Helvetica,sans-Serif" font-size="10.00">+</text>
<text text-anchor="start" x="15" y="-78" font-family="Helvetica,sans-Serif" font-size="10.00">test_add_data_to_stream()</text>
<text text-anchor="start" x="4" y="-63" font-family="Helvetica,sans-Serif" font-size="10.00">+</text>
<text text-anchor="start" x="15" y="-63" font-family="Helvetica,sans-Serif" font-size="10.00">test_generate_stream</text>
<text text-anchor="start" x="15" y="-52" font-family="Helvetica,sans-Serif" font-size="10.00">_frames()</text>
<text text-anchor="start" x="4" y="-37" font-family="Helvetica,sans-Serif" font-size="10.00">+</text>
<text text-anchor="start" x="15" y="-37" font-family="Helvetica,sans-Serif" font-size="10.00">test_receive_frame()</text>
<text text-anchor="start" x="4" y="-22" font-family="Helvetica,sans-Serif" font-size="10.00">+</text>
<text text-anchor="start" x="15" y="-22" font-family="Helvetica,sans-Serif" font-size="10.00">test_is_finished()</text>
<text text-anchor="start" x="4" y="-7" font-family="Helvetica,sans-Serif" font-size="10.00">+</text>
<text text-anchor="start" x="15" y="-7" font-family="Helvetica,sans-Serif" font-size="10.00">test_static_methods()</text>
<polygon fill="#666666" stroke="#666666" points="0,-193 0,-193 136,-193 136,-193 0,-193"/>
<polygon fill="#666666" stroke="#666666" points="0,-118 0,-118 13,-118 13,-118 0,-118"/>
<polygon fill="#666666" stroke="#666666" points="13,-118 13,-118 136,-118 136,-118 13,-118"/>
<polygon fill="none" stroke="#666666" points="0,0 0,-210 136,-210 136,0 0,0"/>
</a>
</g>
</g>
<!-- Node2 -->
<g id="Node000002" class="node">
<title>Node2</title>
<g id="a_Node000002"><a xlink:title=" ">
<polygon fill="white" stroke="transparent" points="113.5,-295 22.5,-295 22.5,-246 113.5,-246 113.5,-295"/>
<text text-anchor="start" x="28" y="-282.5" font-family="Helvetica,sans-Serif" font-size="10.00">unittest::TestCase</text>
<text text-anchor="start" x="66.5" y="-267.5" font-family="Helvetica,sans-Serif" font-size="10.00"> </text>
<text text-anchor="start" x="66.5" y="-252.5" font-family="Helvetica,sans-Serif" font-size="10.00"> </text>
<polygon fill="#666666" stroke="#666666" points="23,-277.5 23,-277.5 114,-277.5 114,-277.5 23,-277.5"/>
<polygon fill="#666666" stroke="#666666" points="23,-262.5 23,-262.5 114,-262.5 114,-262.5 23,-262.5"/>
<polygon fill="none" stroke="#666666" points="22.5,-246 22.5,-295 113.5,-295 113.5,-246 22.5,-246"/>
</a>
</g>
</g>
<!-- Node2&#45;&gt;Node1 -->
<g id="edge1_Node000001_Node000002" class="edge">
<title>Node2&#45;&gt;Node1</title>
<g id="a_edge1_Node000001_Node000002"><a xlink:title=" ">
<path fill="none" stroke="#63b8ff" d="M68,-235.69C68,-227.89 68,-219.18 68,-210.08"/>
<polygon fill="none" stroke="#63b8ff" points="64.5,-235.73 68,-245.73 71.5,-235.73 64.5,-235.73"/>
</a>
</g>
</g>
</g>
</svg>
</svg>

<style type='text/css'>
<![CDATA[
[data-mouse-over-selected='false'] { opacity: 0.7; }
[data-mouse-over-selected='true']  { opacity: 1.0; }
]]>
</style>
<script type="application/ecmascript"><![CDATA[
document.addEventListener('DOMContentLoaded', (event) => {
  highlightEdges();
  highlightAdjacentNodes();
});
]]></script>
</svg>
