<?xml version="1.0" encoding="UTF-8" standalone="no"?>
<!DOCTYPE svg PUBLIC "-//W3C//DTD SVG 1.1//EN"
 "http://www.w3.org/Graphics/SVG/1.1/DTD/svg11.dtd">
<!-- Generated by graphviz version 2.43.0 (0)
 -->
<!-- Title: Graphical Class Hierarchy Pages: 1 -->
<svg width="299pt" height="249pt"
 viewBox="0.00 0.00 299.00 249.00" xmlns="http://www.w3.org/2000/svg" xmlns:xlink="http://www.w3.org/1999/xlink">
<g id="graph0" class="graph" transform="scale(1 1) rotate(0) translate(4 245)">
<title>Graphical Class Hierarchy</title>
<!-- Node0 -->
<g id="Node000000" class="node">
<title>Node0</title>
<g id="a_Node000000"><a xlink:title=" ">
<polygon fill="#e0e0e0" stroke="#999999" points="94,-130 0,-130 0,-111 94,-111 94,-130"/>
<text text-anchor="middle" x="47" y="-118" font-family="Helvetica,sans-Serif" font-size="10.00">unittest.TestCase</text>
</a>
</g>
</g>
<!-- Node1 -->
<g id="Node000001" class="node">
<title>Node1</title>
<g id="a_Node000001"><a xlink:href="classtest__frame_1_1TestFrameStream.html" target="_top" xlink:title=" ">
<polygon fill="white" stroke="#666666" points="282.5,-241 138.5,-241 138.5,-222 282.5,-222 282.5,-241"/>
<text text-anchor="middle" x="210.5" y="-229" font-family="Helvetica,sans-Serif" font-size="10.00">test_frame.TestFrameStream</text>
</a>
</g>
</g>
<!-- Node0&#45;&gt;Node1 -->
<g id="edge6_Node000000_Node000001" class="edge">
<title>Node0&#45;&gt;Node1</title>
<g id="a_edge6_Node000000_Node000001"><a xlink:title=" ">
<path fill="none" stroke="#63b8ff" d="M58.92,-138.67C72.74,-160 98.55,-194.84 130,-213.5 135.72,-216.89 142.02,-219.65 148.49,-221.88"/>
<polygon fill="#63b8ff" stroke="#63b8ff" points="61.88,-136.79 53.6,-130.18 55.95,-140.51 61.88,-136.79"/>
</a>
</g>
</g>
<!-- Node2 -->
<g id="Node000002" class="node">
<title>Node2</title>
<g id="a_Node000002"><a xlink:href="classtest__packet_1_1TestPacket.html" target="_top" xlink:title=" ">
<polygon fill="white" stroke="#666666" points="270.5,-204 150.5,-204 150.5,-185 270.5,-185 270.5,-204"/>
<text text-anchor="middle" x="210.5" y="-192" font-family="Helvetica,sans-Serif" font-size="10.00">test_packet.TestPacket</text>
</a>
</g>
</g>
<!-- Node0&#45;&gt;Node2 -->
<g id="edge7_Node000000_Node000002" class="edge">
<title>Node0&#45;&gt;Node2</title>
<g id="a_edge7_Node000000_Node000002"><a xlink:title=" ">
<path fill="none" stroke="#63b8ff" d="M67.09,-136.64C82.97,-149.26 106.66,-166.33 130,-176.5 137.78,-179.89 146.29,-182.68 154.74,-184.97"/>
<polygon fill="#63b8ff" stroke="#63b8ff" points="69.09,-133.75 59.13,-130.15 64.67,-139.18 69.09,-133.75"/>
</a>
</g>
</g>
<!-- Node3 -->
<g id="Node000003" class="node">
<title>Node3</title>
<g id="a_Node000003"><a xlink:href="classtest__packet_1_1TestPacketHeader.html" target="_top" xlink:title=" ">
<polygon fill="white" stroke="#666666" points="286.5,-167 134.5,-167 134.5,-148 286.5,-148 286.5,-167"/>
<text text-anchor="middle" x="210.5" y="-155" font-family="Helvetica,sans-Serif" font-size="10.00">test_packet.TestPacketHeader</text>
</a>
</g>
</g>
<!-- Node0&#45;&gt;Node3 -->
<g id="edge8_Node000000_Node000003" class="edge">
<title>Node0&#45;&gt;Node3</title>
<g id="a_edge8_Node000000_Node000003"><a xlink:title=" ">
<path fill="none" stroke="#63b8ff" d="M98.63,-132.27C109,-134.67 119.85,-137.18 130,-139.5 142,-142.25 155.03,-145.21 166.99,-147.92"/>
<polygon fill="#63b8ff" stroke="#63b8ff" points="99.4,-128.86 88.87,-130.01 97.82,-135.68 99.4,-128.86"/>
</a>
</g>
</g>
<!-- Node4 -->
<g id="Node000004" class="node">
<title>Node4</title>
<g id="a_Node000004"><a xlink:href="classtest__quic_1_1TestQuicConnection.html" target="_top" xlink:title=" ">
<polygon fill="white" stroke="#666666" points="284.5,-130 136.5,-130 136.5,-111 284.5,-111 284.5,-130"/>
<text text-anchor="middle" x="210.5" y="-118" font-family="Helvetica,sans-Serif" font-size="10.00">test_quic.TestQuicConnection</text>
</a>
</g>
</g>
<!-- Node0&#45;&gt;Node4 -->
<g id="edge9_Node000000_Node000004" class="edge">
<title>Node0&#45;&gt;Node4</title>
<g id="a_edge9_Node000000_Node000004"><a xlink:title=" ">
<path fill="none" stroke="#63b8ff" d="M104.39,-120.5C114.72,-120.5 125.64,-120.5 136.38,-120.5"/>
<polygon fill="#63b8ff" stroke="#63b8ff" points="104.28,-117 94.28,-120.5 104.28,-124 104.28,-117"/>
</a>
</g>
</g>
<!-- Node5 -->
<g id="Node000005" class="node">
<title>Node5</title>
<g id="a_Node000005"><a xlink:href="classtest__stream_1_1TestStream.html" target="_top" xlink:title=" ">
<polygon fill="white" stroke="#666666" points="271.5,-93 149.5,-93 149.5,-74 271.5,-74 271.5,-93"/>
<text text-anchor="middle" x="210.5" y="-81" font-family="Helvetica,sans-Serif" font-size="10.00">test_stream.TestStream</text>
</a>
</g>
</g>
<!-- Node0&#45;&gt;Node5 -->
<g id="edge10_Node000000_Node000005" class="edge">
<title>Node0&#45;&gt;Node5</title>
<g id="a_edge10_Node000000_Node000005"><a xlink:title=" ">
<path fill="none" stroke="#63b8ff" d="M99.45,-108.71C121.5,-103.66 146.92,-97.84 167.77,-93.06"/>
<polygon fill="#63b8ff" stroke="#63b8ff" points="98.56,-105.33 89.59,-110.97 100.12,-112.15 98.56,-105.33"/>
</a>
</g>
</g>
<!-- Node6 -->
<g id="Node000006" class="node">
<title>Node6</title>
<g id="a_Node000006"><a xlink:href="classtest__stream_1_1TestStreamReceiver.html" target="_top" xlink:title=" ">
<polygon fill="white" stroke="#666666" points="291,-56 130,-56 130,-37 291,-37 291,-56"/>
<text text-anchor="middle" x="210.5" y="-44" font-family="Helvetica,sans-Serif" font-size="10.00">test_stream.TestStreamReceiver</text>
</a>
</g>
</g>
<!-- Node0&#45;&gt;Node6 -->
<g id="edge11_Node000000_Node000006" class="edge">
<title>Node0&#45;&gt;Node6</title>
<g id="a_edge11_Node000000_Node000006"><a xlink:title=" ">
<path fill="none" stroke="#63b8ff" d="M67.45,-104.53C83.37,-92.2 106.95,-75.59 130,-65.5 138.71,-61.69 148.31,-58.57 157.73,-56.04"/>
<polygon fill="#63b8ff" stroke="#63b8ff" points="65.11,-101.92 59.44,-110.87 69.45,-107.4 65.11,-101.92"/>
</a>
</g>
</g>
<!-- Node7 -->
<g id="Node000007" class="node">
<title>Node7</title>
<g id="a_Node000007"><a xlink:href="classtest__stream_1_1TestStreamSender.html" target="_top" xlink:title=" ">
<polygon fill="white" stroke="#666666" points="286.5,-19 134.5,-19 134.5,0 286.5,0 286.5,-19"/>
<text text-anchor="middle" x="210.5" y="-7" font-family="Helvetica,sans-Serif" font-size="10.00">test_stream.TestStreamSender</text>
</a>
</g>
</g>
<!-- Node0&#45;&gt;Node7 -->
<g id="edge12_Node000000_Node000007" class="edge">
<title>Node0&#45;&gt;Node7</title>
<g id="a_edge12_Node000000_Node000007"><a xlink:title=" ">
<path fill="none" stroke="#63b8ff" d="M59.2,-102.31C73.14,-81.24 98.94,-47.06 130,-28.5 136.46,-24.64 143.65,-21.57 150.99,-19.12"/>
<polygon fill="#63b8ff" stroke="#63b8ff" points="56.1,-100.66 53.65,-110.96 61.99,-104.43 56.1,-100.66"/>
</a>
</g>
</g>
</g>
</svg>
