<?xml version="1.0" encoding="UTF-8" standalone="no"?>
<!DOCTYPE svg PUBLIC "-//W3C//DTD SVG 1.1//EN"
 "http://www.w3.org/Graphics/SVG/1.1/DTD/svg11.dtd">
<!-- Generated by graphviz version 2.43.0 (0)
 -->
<!-- Title: Graphical Class Hierarchy Pages: 1 -->
<svg width="378pt" height="101pt"
 viewBox="0.00 0.00 378.00 101.00" xmlns="http://www.w3.org/2000/svg" xmlns:xlink="http://www.w3.org/1999/xlink">
<g id="graph0" class="graph" transform="scale(1 1) rotate(0) translate(4 97)">
<title>Graphical Class Hierarchy</title>
<!-- Node0 -->
<g id="Node000000" class="node">
<title>Node0</title>
<g id="a_Node000000"><a xlink:title=" ">
<polygon fill="#e0e0e0" stroke="#999999" points="38,-74 0,-74 0,-55 38,-55 38,-74"/>
<text text-anchor="middle" x="19" y="-62" font-family="Helvetica,sans-Serif" font-size="10.00">ABC</text>
</a>
</g>
</g>
<!-- Node1 -->
<g id="Node000001" class="node">
<title>Node1</title>
<g id="a_Node000001"><a xlink:href="classframe_1_1StreamFrameABC.html" target="_top" xlink:title=" ">
<polygon fill="white" stroke="#666666" points="206.5,-93 81.5,-93 81.5,-74 206.5,-74 206.5,-93"/>
<text text-anchor="middle" x="144" y="-81" font-family="Helvetica,sans-Serif" font-size="10.00">frame.StreamFrameABC</text>
</a>
</g>
</g>
<!-- Node0&#45;&gt;Node1 -->
<g id="edge1_Node000000_Node000001" class="edge">
<title>Node0&#45;&gt;Node1</title>
<g id="a_edge1_Node000000_Node000001"><a xlink:title=" ">
<path fill="none" stroke="#63b8ff" d="M48.23,-68.86C58.19,-70.4 69.82,-72.2 81.45,-73.99"/>
<polygon fill="#63b8ff" stroke="#63b8ff" points="48.57,-65.37 38.15,-67.3 47.5,-72.29 48.57,-65.37"/>
</a>
</g>
</g>
<!-- Node3 -->
<g id="Node000003" class="node">
<title>Node3</title>
<g id="a_Node000003"><a xlink:href="classstream_1_1StreamEndpointABC.html" target="_top" xlink:title=" ">
<polygon fill="white" stroke="#666666" points="214,-56 74,-56 74,-37 214,-37 214,-56"/>
<text text-anchor="middle" x="144" y="-44" font-family="Helvetica,sans-Serif" font-size="10.00">stream.StreamEndpointABC</text>
</a>
</g>
</g>
<!-- Node0&#45;&gt;Node3 -->
<g id="edge3_Node000000_Node000003" class="edge">
<title>Node0&#45;&gt;Node3</title>
<g id="a_edge3_Node000000_Node000003"><a xlink:title=" ">
<path fill="none" stroke="#63b8ff" d="M48.3,-60.36C57.23,-59.05 67.5,-57.55 77.9,-56.03"/>
<polygon fill="#63b8ff" stroke="#63b8ff" points="47.54,-56.93 38.15,-61.84 48.55,-63.86 47.54,-56.93"/>
</a>
</g>
</g>
<!-- Node2 -->
<g id="Node000002" class="node">
<title>Node2</title>
<g id="a_Node000002"><a xlink:href="classframe_1_1FrameStream.html" target="_top" xlink:title=" ">
<polygon fill="white" stroke="#666666" points="362,-93 258,-93 258,-74 362,-74 362,-93"/>
<text text-anchor="middle" x="310" y="-81" font-family="Helvetica,sans-Serif" font-size="10.00">frame.FrameStream</text>
</a>
</g>
</g>
<!-- Node1&#45;&gt;Node2 -->
<g id="edge2_Node000001_Node000002" class="edge">
<title>Node1&#45;&gt;Node2</title>
<g id="a_edge2_Node000001_Node000002"><a xlink:title=" ">
<path fill="none" stroke="#63b8ff" d="M216.56,-83.5C230.46,-83.5 244.76,-83.5 257.84,-83.5"/>
<polygon fill="#63b8ff" stroke="#63b8ff" points="216.53,-80 206.53,-83.5 216.53,-87 216.53,-80"/>
</a>
</g>
</g>
<!-- Node4 -->
<g id="Node000004" class="node">
<title>Node4</title>
<g id="a_Node000004"><a xlink:href="classstream_1_1StreamReceiver.html" target="_top" xlink:title=" ">
<polygon fill="white" stroke="#666666" points="370,-56 250,-56 250,-37 370,-37 370,-56"/>
<text text-anchor="middle" x="310" y="-44" font-family="Helvetica,sans-Serif" font-size="10.00">stream.StreamReceiver</text>
</a>
</g>
</g>
<!-- Node3&#45;&gt;Node4 -->
<g id="edge4_Node000003_Node000004" class="edge">
<title>Node3&#45;&gt;Node4</title>
<g id="a_edge4_Node000003_Node000004"><a xlink:title=" ">
<path fill="none" stroke="#63b8ff" d="M224.19,-46.5C232.83,-46.5 241.53,-46.5 249.87,-46.5"/>
<polygon fill="#63b8ff" stroke="#63b8ff" points="224.08,-43 214.08,-46.5 224.08,-50 224.08,-43"/>
</a>
</g>
</g>
<!-- Node5 -->
<g id="Node000005" class="node">
<title>Node5</title>
<g id="a_Node000005"><a xlink:href="classstream_1_1StreamSender.html" target="_top" xlink:title=" ">
<polygon fill="white" stroke="#666666" points="366,-19 254,-19 254,0 366,0 366,-19"/>
<text text-anchor="middle" x="310" y="-7" font-family="Helvetica,sans-Serif" font-size="10.00">stream.StreamSender</text>
</a>
</g>
</g>
<!-- Node3&#45;&gt;Node5 -->
<g id="edge5_Node000003_Node000005" class="edge">
<title>Node3&#45;&gt;Node5</title>
<g id="a_edge5_Node000003_Node000005"><a xlink:title=" ">
<path fill="none" stroke="#63b8ff" d="M197.25,-34.71C219.64,-29.66 245.45,-23.84 266.62,-19.06"/>
<polygon fill="#63b8ff" stroke="#63b8ff" points="196.22,-31.36 187.23,-36.97 197.76,-38.18 196.22,-31.36"/>
</a>
</g>
</g>
</g>
</svg>
