<?xml version="1.0" encoding="UTF-8" standalone="no"?>
<!DOCTYPE svg PUBLIC "-//W3C//DTD SVG 1.1//EN"
 "http://www.w3.org/Graphics/SVG/1.1/DTD/svg11.dtd">
<!-- Generated by graphviz version 2.43.0 (0)
 -->
<!-- Title: Graphical Class Hierarchy Pages: 1 -->
<svg width="299pt" height="101pt"
 viewBox="0.00 0.00 299.00 101.00" xmlns="http://www.w3.org/2000/svg" xmlns:xlink="http://www.w3.org/1999/xlink">
<g id="graph0" class="graph" transform="scale(1 1) rotate(0) translate(4 97)">
<title>Graphical Class Hierarchy</title>
<!-- Node0 -->
<g id="Node000000" class="node">
<title>Node0</title>
<g id="a_Node000000"><a xlink:title=" ">
<polygon fill="#e0e0e0" stroke="#999999" points="94,-56 0,-56 0,-37 94,-37 94,-56"/>
<text text-anchor="middle" x="47" y="-44" font-family="Helvetica,sans-Serif" font-size="10.00">unittest.TestCase</text>
</a>
</g>
</g>
<!-- Node1 -->
<g id="Node000001" class="node">
<title>Node1</title>
<g id="a_Node000001"><a xlink:href="classtest__stream_1_1TestStream.html" target="_top" xlink:title=" ">
<polygon fill="white" stroke="#666666" points="271.5,-93 149.5,-93 149.5,-74 271.5,-74 271.5,-93"/>
<text text-anchor="middle" x="210.5" y="-81" font-family="Helvetica,sans-Serif" font-size="10.00">test_stream.TestStream</text>
</a>
</g>
</g>
<!-- Node0&#45;&gt;Node1 -->
<g id="edge6_Node000000_Node000001" class="edge">
<title>Node0&#45;&gt;Node1</title>
<g id="a_edge6_Node000000_Node000001"><a xlink:title=" ">
<path fill="none" stroke="#63b8ff" d="M98.63,-58.27C109,-60.67 119.85,-63.18 130,-65.5 142,-68.25 155.03,-71.21 166.99,-73.92"/>
<polygon fill="#63b8ff" stroke="#63b8ff" points="99.4,-54.86 88.87,-56.01 97.82,-61.68 99.4,-54.86"/>
</a>
</g>
</g>
<!-- Node2 -->
<g id="Node000002" class="node">
<title>Node2</title>
<g id="a_Node000002"><a xlink:href="classtest__stream_1_1TestStreamReceiver.html" target="_top" xlink:title=" ">
<polygon fill="white" stroke="#666666" points="291,-56 130,-56 130,-37 291,-37 291,-56"/>
<text text-anchor="middle" x="210.5" y="-44" font-family="Helvetica,sans-Serif" font-size="10.00">test_stream.TestStreamReceiver</text>
</a>
</g>
</g>
<!-- Node0&#45;&gt;Node2 -->
<g id="edge7_Node000000_Node000002" class="edge">
<title>Node0&#45;&gt;Node2</title>
<g id="a_edge7_Node000000_Node000002"><a xlink:title=" ">
<path fill="none" stroke="#63b8ff" d="M104.5,-46.5C112.75,-46.5 121.37,-46.5 129.97,-46.5"/>
<polygon fill="#63b8ff" stroke="#63b8ff" points="104.28,-43 94.28,-46.5 104.28,-50 104.28,-43"/>
</a>
</g>
</g>
<!-- Node3 -->
<g id="Node000003" class="node">
<title>Node3</title>
<g id="a_Node000003"><a xlink:href="classtest__stream_1_1TestStreamSender.html" target="_top" xlink:title=" ">
<polygon fill="white" stroke="#666666" points="286.5,-19 134.5,-19 134.5,0 286.5,0 286.5,-19"/>
<text text-anchor="middle" x="210.5" y="-7" font-family="Helvetica,sans-Serif" font-size="10.00">test_stream.TestStreamSender</text>
</a>
</g>
</g>
<!-- Node0&#45;&gt;Node3 -->
<g id="edge8_Node000000_Node000003" class="edge">
<title>Node0&#45;&gt;Node3</title>
<g id="a_edge8_Node000000_Node000003"><a xlink:title=" ">
<path fill="none" stroke="#63b8ff" d="M99.45,-34.71C121.5,-29.66 146.92,-23.84 167.77,-19.06"/>
<polygon fill="#63b8ff" stroke="#63b8ff" points="98.56,-31.33 89.59,-36.97 100.12,-38.15 98.56,-31.33"/>
</a>
</g>
</g>
</g>
</svg>
